<svg viewBox="0 0 460 380" fill="none" xmlns="http://www.w3.org/2000/svg" role="img" aria-label="Available on all devices illustration">
  <defs>
    <linearGradient id="dl-main" x1="0" y1="0" x2="1" y2="1">
      <stop offset="0" stop-color="var(--primary-color)"/>
      <stop offset="1" stop-color="var(--gradient-secondary)"/>
    </linearGradient>
    <linearGradient id="dl-green" x1="0" y1="0" x2="1" y2="1">
      <stop offset="0" stop-color="#2EB872"/>
      <stop offset="1" stop-color="#006E2B"/>
    </linearGradient>
  </defs>

  <circle cx="70" cy="320" r="80" fill="var(--gradient-secondary)" opacity="0.08"/>
  <circle cx="400" cy="60" r="70" fill="var(--primary-color)" opacity="0.06"/>
  <circle cx="240" cy="360" r="60" fill="var(--secondary-color)" opacity="0.05"/>

  <circle cx="70" cy="160" r="4" fill="var(--primary-color)" opacity="0.3"/>
  <circle cx="400" cy="200" r="5" fill="var(--gradient-secondary)" opacity="0.35"/>
  <circle cx="240" cy="58" r="3" fill="var(--secondary-color)" opacity="0.4"/>
  <circle cx="180" cy="330" r="4" fill="var(--primary-color)" opacity="0.3"/>
  <circle cx="330" cy="60" r="3" fill="var(--primary-color)" opacity="0.35"/>

  <path d="M150 90 v10 M145 95 h10" stroke="var(--primary-color)" stroke-width="2" stroke-linecap="round"
        opacity="0.5"/>
  <path d="M320 120 v10 M315 125 h10" stroke="var(--gradient-secondary)" stroke-width="2"
        stroke-linecap="round" opacity="0.5"/>

  <g>
    <rect x="70" y="22" width="24" height="16" rx="8" fill="var(--border-color)" opacity="0.5"/>
    <rect x="70" y="92" width="24" height="16" rx="8" fill="var(--border-color)" opacity="0.5"/>
    <rect x="58" y="36" width="48" height="58" rx="16" fill="var(--card-background)"
          stroke="var(--border-color)" stroke-width="3"/>
    <rect x="64" y="42" width="36" height="46" rx="12" fill="url(#dl-green)"/>
    <path d="M74 66 L81 73 L93 59" stroke="white" stroke-width="4" stroke-linecap="round"
          stroke-linejoin="round" fill="none"/>
  </g>

  <g transform="rotate(-12 375 85)">
    <rect x="348" y="40" width="54" height="92" rx="11" fill="var(--card-background)"
          stroke="var(--border-color)" stroke-width="3"/>
    <rect x="354" y="46" width="42" height="80" rx="7" fill="url(#dl-main)"/>
    <rect x="366" y="51" width="18" height="5" rx="2.5" fill="white" opacity="0.35"/>
    <circle cx="385" cy="75" r="5" fill="white" opacity="0.6"/>
    <rect x="360" y="104" width="30" height="6" rx="3" fill="white" opacity="0.4"/>
    <rect x="360" y="114" width="22" height="6" rx="3" fill="white" opacity="0.3"/>
  </g>

  <g transform="translate(191.6,6.6) scale(3.2)">
    <path d="M19.35 10.04C18.67 6.59 15.64 4 12 4 9.11 4 6.6 5.64 5.35 8.04 2.34 8.36 0 10.91 0 14c0 3.31 2.69 6 6 6h13c2.76 0 5-2.24 5-5 0-2.64-2.05-4.78-4.65-4.96zM14 13v4h-4v-4H7l5-5 5 5h-3z"
          fill="url(#dl-main)"/>
  </g>
  <line x1="230" y1="82" x2="230" y2="182" stroke="var(--gradient-secondary)" stroke-width="3"
        stroke-dasharray="6 6" stroke-linecap="round" opacity="0.7"/>
  <path d="M230 196 L218 182 L242 182 Z" fill="url(#dl-main)"/>

  <g>
    <rect x="35" y="150" width="110" height="74" rx="10" fill="var(--card-background)"
          stroke="var(--border-color)" stroke-width="3"/>
    <rect x="43" y="158" width="94" height="58" rx="6" fill="url(#dl-main)"/>
    <rect x="55" y="196" width="12" height="14" rx="6" fill="white" opacity="0.45"/>
    <rect x="73" y="186" width="12" height="24" rx="6" fill="white" opacity="0.6"/>
    <rect x="91" y="178" width="12" height="32" rx="6" fill="white" opacity="0.85"/>
    <rect x="109" y="190" width="12" height="20" rx="6" fill="white" opacity="0.45"/>
    <rect x="85" y="224" width="10" height="16" fill="var(--border-color)" opacity="0.7"/>
    <rect x="58" y="240" width="64" height="9" rx="4.5" fill="var(--card-background)"
          stroke="var(--border-color)" stroke-width="2"/>
  </g>

  <g>
    <rect x="345" y="150" width="72" height="110" rx="14" fill="var(--card-background)"
          stroke="var(--border-color)" stroke-width="3"/>
    <rect x="353" y="158" width="56" height="94" rx="8" fill="url(#dl-green)"/>
    <line x1="381" y1="178" x2="381" y2="226" stroke="white" stroke-width="5" stroke-linecap="round"/>
    <path d="M381 236 L370 222 L392 222 Z" fill="white"/>
    <rect x="362" y="238" width="38" height="5" rx="2.5" fill="white" opacity="0.45"/>
  </g>

  <g>
    <rect x="210" y="196" width="100" height="64" rx="6" fill="url(#dl-main)"/>
    <rect x="224" y="216" width="72" height="7" rx="3.5" fill="white" opacity="0.35"/>
    <rect x="224" y="230" width="56" height="7" rx="3.5" fill="white" opacity="0.35"/>
    <rect x="224" y="244" width="40" height="7" rx="3.5" fill="var(--gradient-secondary)" opacity="0.5"/>
    <rect x="215" y="256" width="90" height="5" rx="2.5" fill="var(--border-color)" opacity="0.6"/>
    <rect x="205" y="260" width="110" height="12" rx="4" fill="var(--card-background)"
          stroke="var(--border-color)" stroke-width="2"/>
  </g>
</svg>
